@startuml
Title Domænemodel

hide circle
hide methods

class Wheel {
    Identifikationsnummer
}

class Felter {
    værdi
}

class Spin {
    tilfædigt tal/udfald
    resultat
}

object Resultat {
    gevinst
}

class Spiller {
    navn
}

class Firma {
    navn
}



Firma "1" -- "*" Wheel
Wheel "1" -- "*" Felter
Wheel "*" -- "*" Spiller
Spiller "1" -- "*" Spin



@enduml